<mxfile host="app.diagrams.net" modified="2020-10-07T08:48:48.311Z" agent="5.0 (X11; Linux x86_64) AppleWebKit/537.36 (KHTML, like Gecko) Chrome/83.0.4103.116 Safari/537.36" etag="IVhr2yIJ85B03RlwbFj2" version="13.7.7" type="gitlab">
  <diagram id="L78k47U69HLxivYjufpT" name="Page-1">
    <mxGraphModel dx="1422" dy="833" grid="0" gridSize="10" guides="1" tooltips="1" connect="1" arrows="1" fold="1" page="1" pageScale="1" pageWidth="1169" pageHeight="1654" background="#ffffff" math="0" shadow="0">
      <root>
        <mxCell id="0" />
        <mxCell id="1" parent="0" />
        <mxCell id="8Qk3gI1zRfMAFnqxJvFZ-7" style="edgeStyle=orthogonalEdgeStyle;rounded=0;orthogonalLoop=1;jettySize=auto;html=1;exitX=1;exitY=0.5;exitDx=0;exitDy=0;entryX=0;entryY=0.5;entryDx=0;entryDy=0;" parent="1" source="8Qk3gI1zRfMAFnqxJvFZ-1" target="8Qk3gI1zRfMAFnqxJvFZ-2" edge="1">
          <mxGeometry relative="1" as="geometry" />
        </mxCell>
        <mxCell id="8Qk3gI1zRfMAFnqxJvFZ-8" style="edgeStyle=orthogonalEdgeStyle;rounded=0;orthogonalLoop=1;jettySize=auto;html=1;exitX=1;exitY=0.5;exitDx=0;exitDy=0;entryX=0;entryY=0.5;entryDx=0;entryDy=0;" parent="1" source="8Qk3gI1zRfMAFnqxJvFZ-1" target="8Qk3gI1zRfMAFnqxJvFZ-3" edge="1">
          <mxGeometry relative="1" as="geometry" />
        </mxCell>
        <mxCell id="8Qk3gI1zRfMAFnqxJvFZ-9" style="edgeStyle=orthogonalEdgeStyle;rounded=0;orthogonalLoop=1;jettySize=auto;html=1;exitX=1;exitY=0.5;exitDx=0;exitDy=0;entryX=0;entryY=0.5;entryDx=0;entryDy=0;" parent="1" source="8Qk3gI1zRfMAFnqxJvFZ-1" target="8Qk3gI1zRfMAFnqxJvFZ-4" edge="1">
          <mxGeometry relative="1" as="geometry" />
        </mxCell>
        <mxCell id="8Qk3gI1zRfMAFnqxJvFZ-20" style="edgeStyle=orthogonalEdgeStyle;rounded=0;orthogonalLoop=1;jettySize=auto;html=1;exitX=1;exitY=0.5;exitDx=0;exitDy=0;entryX=0;entryY=0.5;entryDx=0;entryDy=0;entryPerimeter=0;" parent="1" source="8Qk3gI1zRfMAFnqxJvFZ-1" target="8Qk3gI1zRfMAFnqxJvFZ-19" edge="1">
          <mxGeometry relative="1" as="geometry" />
        </mxCell>
        <mxCell id="3epC_5tGNAp-iQS2bgfX-2" style="edgeStyle=orthogonalEdgeStyle;rounded=0;orthogonalLoop=1;jettySize=auto;html=1;exitX=1;exitY=0.5;exitDx=0;exitDy=0;entryX=0;entryY=0.5;entryDx=0;entryDy=0;entryPerimeter=0;" parent="1" source="8Qk3gI1zRfMAFnqxJvFZ-1" target="3epC_5tGNAp-iQS2bgfX-1" edge="1">
          <mxGeometry relative="1" as="geometry" />
        </mxCell>
        <mxCell id="8Qk3gI1zRfMAFnqxJvFZ-1" value="Projet Groupe 20" style="rounded=1;whiteSpace=wrap;html=1;fillColor=#d5e8d4;strokeColor=#82b366;" parent="1" vertex="1">
          <mxGeometry x="65" y="200" width="120" height="40" as="geometry" />
        </mxCell>
        <mxCell id="3epC_5tGNAp-iQS2bgfX-65" style="edgeStyle=orthogonalEdgeStyle;rounded=0;orthogonalLoop=1;jettySize=auto;html=1;exitX=1;exitY=0.5;exitDx=0;exitDy=0;entryX=0;entryY=0.5;entryDx=0;entryDy=0;entryPerimeter=0;" parent="1" source="8Qk3gI1zRfMAFnqxJvFZ-2" target="3epC_5tGNAp-iQS2bgfX-62" edge="1">
          <mxGeometry relative="1" as="geometry" />
        </mxCell>
        <mxCell id="3epC_5tGNAp-iQS2bgfX-66" style="edgeStyle=orthogonalEdgeStyle;rounded=0;orthogonalLoop=1;jettySize=auto;html=1;exitX=1;exitY=0.5;exitDx=0;exitDy=0;entryX=0;entryY=0.5;entryDx=0;entryDy=0;entryPerimeter=0;" parent="1" source="8Qk3gI1zRfMAFnqxJvFZ-2" target="3epC_5tGNAp-iQS2bgfX-63" edge="1">
          <mxGeometry relative="1" as="geometry" />
        </mxCell>
        <mxCell id="3epC_5tGNAp-iQS2bgfX-67" style="edgeStyle=orthogonalEdgeStyle;rounded=0;orthogonalLoop=1;jettySize=auto;html=1;exitX=1;exitY=0.5;exitDx=0;exitDy=0;entryX=0;entryY=0.5;entryDx=0;entryDy=0;entryPerimeter=0;" parent="1" source="8Qk3gI1zRfMAFnqxJvFZ-2" target="3epC_5tGNAp-iQS2bgfX-64" edge="1">
          <mxGeometry relative="1" as="geometry" />
        </mxCell>
        <mxCell id="8Qk3gI1zRfMAFnqxJvFZ-2" value="BDD" style="rounded=1;whiteSpace=wrap;html=1;fillColor=#d5e8d4;strokeColor=#82b366;" parent="1" vertex="1">
          <mxGeometry x="255" y="70" width="120" height="40" as="geometry" />
        </mxCell>
        <mxCell id="8Qk3gI1zRfMAFnqxJvFZ-21" style="edgeStyle=orthogonalEdgeStyle;rounded=0;orthogonalLoop=1;jettySize=auto;html=1;exitX=1;exitY=0.5;exitDx=0;exitDy=0;entryX=0;entryY=0.5;entryDx=0;entryDy=0;" parent="1" source="8Qk3gI1zRfMAFnqxJvFZ-3" target="8Qk3gI1zRfMAFnqxJvFZ-12" edge="1">
          <mxGeometry relative="1" as="geometry" />
        </mxCell>
        <mxCell id="8Qk3gI1zRfMAFnqxJvFZ-24" style="edgeStyle=orthogonalEdgeStyle;rounded=0;orthogonalLoop=1;jettySize=auto;html=1;exitX=1;exitY=0.5;exitDx=0;exitDy=0;entryX=0;entryY=0.5;entryDx=0;entryDy=0;" parent="1" source="8Qk3gI1zRfMAFnqxJvFZ-3" target="8Qk3gI1zRfMAFnqxJvFZ-16" edge="1">
          <mxGeometry relative="1" as="geometry" />
        </mxCell>
        <mxCell id="8Qk3gI1zRfMAFnqxJvFZ-25" style="edgeStyle=orthogonalEdgeStyle;rounded=0;orthogonalLoop=1;jettySize=auto;html=1;exitX=1;exitY=0.5;exitDx=0;exitDy=0;entryX=0;entryY=0.5;entryDx=0;entryDy=0;entryPerimeter=0;" parent="1" source="8Qk3gI1zRfMAFnqxJvFZ-3" target="8Qk3gI1zRfMAFnqxJvFZ-17" edge="1">
          <mxGeometry relative="1" as="geometry" />
        </mxCell>
        <mxCell id="8Qk3gI1zRfMAFnqxJvFZ-28" style="edgeStyle=orthogonalEdgeStyle;rounded=0;orthogonalLoop=1;jettySize=auto;html=1;exitX=1;exitY=0.5;exitDx=0;exitDy=0;entryX=0;entryY=0.5;entryDx=0;entryDy=0;" parent="1" source="8Qk3gI1zRfMAFnqxJvFZ-3" target="8Qk3gI1zRfMAFnqxJvFZ-14" edge="1">
          <mxGeometry relative="1" as="geometry" />
        </mxCell>
        <mxCell id="8Qk3gI1zRfMAFnqxJvFZ-3" value="App" style="rounded=1;whiteSpace=wrap;html=1;fillColor=#d5e8d4;strokeColor=#82b366;" parent="1" vertex="1">
          <mxGeometry x="255" y="310" width="120" height="40" as="geometry" />
        </mxCell>
        <mxCell id="8Qk3gI1zRfMAFnqxJvFZ-10" style="edgeStyle=orthogonalEdgeStyle;rounded=0;orthogonalLoop=1;jettySize=auto;html=1;exitX=1;exitY=0.5;exitDx=0;exitDy=0;entryX=0;entryY=0.5;entryDx=0;entryDy=0;" parent="1" source="8Qk3gI1zRfMAFnqxJvFZ-4" target="8Qk3gI1zRfMAFnqxJvFZ-5" edge="1">
          <mxGeometry relative="1" as="geometry" />
        </mxCell>
        <mxCell id="8Qk3gI1zRfMAFnqxJvFZ-11" style="edgeStyle=orthogonalEdgeStyle;rounded=0;orthogonalLoop=1;jettySize=auto;html=1;exitX=1;exitY=0.5;exitDx=0;exitDy=0;entryX=0;entryY=0.5;entryDx=0;entryDy=0;" parent="1" source="8Qk3gI1zRfMAFnqxJvFZ-4" target="8Qk3gI1zRfMAFnqxJvFZ-6" edge="1">
          <mxGeometry relative="1" as="geometry" />
        </mxCell>
        <mxCell id="8Qk3gI1zRfMAFnqxJvFZ-4" value="Livrables" style="rounded=1;whiteSpace=wrap;html=1;fillColor=#d5e8d4;strokeColor=#82b366;" parent="1" vertex="1">
          <mxGeometry x="255" y="1130" width="120" height="40" as="geometry" />
        </mxCell>
        <mxCell id="8Qk3gI1zRfMAFnqxJvFZ-5" value="Diagrammes" style="rounded=1;whiteSpace=wrap;html=1;fillColor=#d5e8d4;strokeColor=#82b366;" parent="1" vertex="1">
          <mxGeometry x="445" y="1130" width="120" height="40" as="geometry" />
        </mxCell>
        <mxCell id="8Qk3gI1zRfMAFnqxJvFZ-45" style="edgeStyle=orthogonalEdgeStyle;rounded=0;orthogonalLoop=1;jettySize=auto;html=1;exitX=1;exitY=0.5;exitDx=0;exitDy=0;entryX=0;entryY=0.5;entryDx=0;entryDy=0;entryPerimeter=0;" parent="1" source="8Qk3gI1zRfMAFnqxJvFZ-6" target="8Qk3gI1zRfMAFnqxJvFZ-44" edge="1">
          <mxGeometry relative="1" as="geometry" />
        </mxCell>
        <mxCell id="8Qk3gI1zRfMAFnqxJvFZ-6" value="Documentation" style="rounded=1;whiteSpace=wrap;html=1;fillColor=#d5e8d4;strokeColor=#82b366;" parent="1" vertex="1">
          <mxGeometry x="445" y="1210" width="120" height="40" as="geometry" />
        </mxCell>
        <mxCell id="3epC_5tGNAp-iQS2bgfX-10" style="edgeStyle=orthogonalEdgeStyle;rounded=0;orthogonalLoop=1;jettySize=auto;html=1;exitX=1;exitY=0.5;exitDx=0;exitDy=0;entryX=0;entryY=0.5;entryDx=0;entryDy=0;" parent="1" source="8Qk3gI1zRfMAFnqxJvFZ-12" target="3epC_5tGNAp-iQS2bgfX-6" edge="1">
          <mxGeometry relative="1" as="geometry" />
        </mxCell>
        <mxCell id="3epC_5tGNAp-iQS2bgfX-12" style="edgeStyle=orthogonalEdgeStyle;rounded=0;orthogonalLoop=1;jettySize=auto;html=1;exitX=1;exitY=0.5;exitDx=0;exitDy=0;entryX=0;entryY=0.5;entryDx=0;entryDy=0;" parent="1" source="8Qk3gI1zRfMAFnqxJvFZ-12" target="3epC_5tGNAp-iQS2bgfX-11" edge="1">
          <mxGeometry relative="1" as="geometry" />
        </mxCell>
        <mxCell id="3epC_5tGNAp-iQS2bgfX-24" style="edgeStyle=orthogonalEdgeStyle;rounded=0;orthogonalLoop=1;jettySize=auto;html=1;exitX=1;exitY=0.5;exitDx=0;exitDy=0;entryX=0;entryY=0.5;entryDx=0;entryDy=0;" parent="1" source="8Qk3gI1zRfMAFnqxJvFZ-12" target="3epC_5tGNAp-iQS2bgfX-21" edge="1">
          <mxGeometry relative="1" as="geometry" />
        </mxCell>
        <mxCell id="8Qk3gI1zRfMAFnqxJvFZ-12" value="FonctionnalitÃ©s" style="rounded=1;whiteSpace=wrap;html=1;fillColor=#d5e8d4;strokeColor=#82b366;" parent="1" vertex="1">
          <mxGeometry x="445" y="260" width="120" height="40" as="geometry" />
        </mxCell>
        <mxCell id="3epC_5tGNAp-iQS2bgfX-51" style="edgeStyle=orthogonalEdgeStyle;rounded=0;orthogonalLoop=1;jettySize=auto;html=1;exitX=1;exitY=0.5;exitDx=0;exitDy=0;entryX=0;entryY=0.5;entryDx=0;entryDy=0;entryPerimeter=0;" parent="1" source="8Qk3gI1zRfMAFnqxJvFZ-14" target="3epC_5tGNAp-iQS2bgfX-49" edge="1">
          <mxGeometry relative="1" as="geometry" />
        </mxCell>
        <mxCell id="3epC_5tGNAp-iQS2bgfX-52" style="edgeStyle=orthogonalEdgeStyle;rounded=0;orthogonalLoop=1;jettySize=auto;html=1;exitX=1;exitY=0.5;exitDx=0;exitDy=0;entryX=0;entryY=0.5;entryDx=0;entryDy=0;entryPerimeter=0;" parent="1" source="8Qk3gI1zRfMAFnqxJvFZ-14" target="3epC_5tGNAp-iQS2bgfX-50" edge="1">
          <mxGeometry relative="1" as="geometry" />
        </mxCell>
        <mxCell id="8Qk3gI1zRfMAFnqxJvFZ-14" value="Tests" style="rounded=1;whiteSpace=wrap;html=1;fillColor=#d5e8d4;strokeColor=#82b366;" parent="1" vertex="1">
          <mxGeometry x="445" y="760" width="120" height="40" as="geometry" />
        </mxCell>
        <mxCell id="8Qk3gI1zRfMAFnqxJvFZ-34" style="edgeStyle=orthogonalEdgeStyle;rounded=0;orthogonalLoop=1;jettySize=auto;html=1;exitX=1;exitY=0.5;exitDx=0;exitDy=0;entryX=0;entryY=0.5;entryDx=0;entryDy=0;entryPerimeter=0;" parent="1" source="8Qk3gI1zRfMAFnqxJvFZ-16" target="8Qk3gI1zRfMAFnqxJvFZ-31" edge="1">
          <mxGeometry relative="1" as="geometry" />
        </mxCell>
        <mxCell id="8Qk3gI1zRfMAFnqxJvFZ-35" style="edgeStyle=orthogonalEdgeStyle;rounded=0;orthogonalLoop=1;jettySize=auto;html=1;exitX=1;exitY=0.5;exitDx=0;exitDy=0;entryX=0;entryY=0.5;entryDx=0;entryDy=0;entryPerimeter=0;" parent="1" source="8Qk3gI1zRfMAFnqxJvFZ-16" target="8Qk3gI1zRfMAFnqxJvFZ-33" edge="1">
          <mxGeometry relative="1" as="geometry" />
        </mxCell>
        <mxCell id="3epC_5tGNAp-iQS2bgfX-59" style="edgeStyle=orthogonalEdgeStyle;rounded=0;orthogonalLoop=1;jettySize=auto;html=1;exitX=1;exitY=0.5;exitDx=0;exitDy=0;entryX=0;entryY=0.5;entryDx=0;entryDy=0;entryPerimeter=0;" parent="1" source="8Qk3gI1zRfMAFnqxJvFZ-16" target="3epC_5tGNAp-iQS2bgfX-58" edge="1">
          <mxGeometry relative="1" as="geometry" />
        </mxCell>
        <mxCell id="8Qk3gI1zRfMAFnqxJvFZ-16" value="Menus (Interface)" style="rounded=1;whiteSpace=wrap;html=1;fillColor=#d5e8d4;strokeColor=#82b366;" parent="1" vertex="1">
          <mxGeometry x="445" y="957" width="120" height="40" as="geometry" />
        </mxCell>
        <mxCell id="8Qk3gI1zRfMAFnqxJvFZ-17" value="main.py" style="shape=note;whiteSpace=wrap;html=1;backgroundOutline=1;darkOpacity=0.05;size=19;fillColor=#d5e8d4;strokeColor=#82b366;" parent="1" vertex="1">
          <mxGeometry x="445" y="1027" width="120" height="40" as="geometry" />
        </mxCell>
        <mxCell id="8Qk3gI1zRfMAFnqxJvFZ-19" value="LICENCE" style="shape=note;whiteSpace=wrap;html=1;backgroundOutline=1;darkOpacity=0.05;size=17;fillColor=#f8cecc;strokeColor=#b85450;" parent="1" vertex="1">
          <mxGeometry x="255" y="1260" width="120" height="40" as="geometry" />
        </mxCell>
        <mxCell id="8Qk3gI1zRfMAFnqxJvFZ-31" value="menu_interface.py" style="shape=note;whiteSpace=wrap;html=1;backgroundOutline=1;darkOpacity=0.05;size=19;fillColor=#fff2cc;strokeColor=#d6b656;" parent="1" vertex="1">
          <mxGeometry x="615" y="957" width="120" height="40" as="geometry" />
        </mxCell>
        <mxCell id="8Qk3gI1zRfMAFnqxJvFZ-33" value="menu_data.py" style="shape=note;whiteSpace=wrap;html=1;backgroundOutline=1;darkOpacity=0.05;size=19;fillColor=#fff2cc;strokeColor=#d6b656;" parent="1" vertex="1">
          <mxGeometry x="615" y="1017" width="120" height="40" as="geometry" />
        </mxCell>
        <mxCell id="8Qk3gI1zRfMAFnqxJvFZ-44" value="Users.html" style="shape=note;whiteSpace=wrap;html=1;backgroundOutline=1;darkOpacity=0.05;size=19;fillColor=#fff2cc;strokeColor=#d6b656;" parent="1" vertex="1">
          <mxGeometry x="615" y="1210" width="120" height="40" as="geometry" />
        </mxCell>
        <mxCell id="3epC_5tGNAp-iQS2bgfX-1" value="README.md" style="shape=note;whiteSpace=wrap;html=1;backgroundOutline=1;darkOpacity=0.05;size=17;fillColor=#f8cecc;strokeColor=#b85450;" parent="1" vertex="1">
          <mxGeometry x="255" y="1343" width="120" height="40" as="geometry" />
        </mxCell>
        <mxCell id="3epC_5tGNAp-iQS2bgfX-3" style="edgeStyle=orthogonalEdgeStyle;rounded=0;orthogonalLoop=1;jettySize=auto;html=1;exitX=1;exitY=0.5;exitDx=0;exitDy=0;entryX=0;entryY=0.5;entryDx=0;entryDy=0;entryPerimeter=0;" parent="1" source="3epC_5tGNAp-iQS2bgfX-6" target="3epC_5tGNAp-iQS2bgfX-8" edge="1">
          <mxGeometry relative="1" as="geometry">
            <mxPoint x="805" y="220" as="targetPoint" />
          </mxGeometry>
        </mxCell>
        <mxCell id="3epC_5tGNAp-iQS2bgfX-5" style="edgeStyle=orthogonalEdgeStyle;rounded=0;orthogonalLoop=1;jettySize=auto;html=1;exitX=1;exitY=0.5;exitDx=0;exitDy=0;entryX=0;entryY=0.5;entryDx=0;entryDy=0;entryPerimeter=0;" parent="1" source="3epC_5tGNAp-iQS2bgfX-6" target="3epC_5tGNAp-iQS2bgfX-9" edge="1">
          <mxGeometry relative="1" as="geometry" />
        </mxCell>
        <mxCell id="3epC_5tGNAp-iQS2bgfX-14" style="edgeStyle=orthogonalEdgeStyle;rounded=0;orthogonalLoop=1;jettySize=auto;html=1;exitX=1;exitY=0.5;exitDx=0;exitDy=0;entryX=0;entryY=0.5;entryDx=0;entryDy=0;entryPerimeter=0;" parent="1" source="3epC_5tGNAp-iQS2bgfX-6" target="3epC_5tGNAp-iQS2bgfX-13" edge="1">
          <mxGeometry relative="1" as="geometry" />
        </mxCell>
        <mxCell id="3epC_5tGNAp-iQS2bgfX-6" value="Classes Utilisateurs" style="rounded=1;whiteSpace=wrap;html=1;fillColor=#d5e8d4;strokeColor=#82b366;" parent="1" vertex="1">
          <mxGeometry x="615" y="220" width="120" height="40" as="geometry" />
        </mxCell>
        <mxCell id="3epC_5tGNAp-iQS2bgfX-8" value="Players.py" style="shape=note;whiteSpace=wrap;html=1;backgroundOutline=1;darkOpacity=0.05;size=19;fillColor=#fff2cc;strokeColor=#d6b656;" parent="1" vertex="1">
          <mxGeometry x="805" y="220" width="120" height="40" as="geometry" />
        </mxCell>
        <mxCell id="3epC_5tGNAp-iQS2bgfX-9" value="Guests.py" style="shape=note;whiteSpace=wrap;html=1;backgroundOutline=1;darkOpacity=0.05;size=19;fillColor=#fff2cc;strokeColor=#d6b656;" parent="1" vertex="1">
          <mxGeometry x="805" y="270" width="120" height="40" as="geometry" />
        </mxCell>
        <mxCell id="3epC_5tGNAp-iQS2bgfX-18" style="edgeStyle=orthogonalEdgeStyle;rounded=0;orthogonalLoop=1;jettySize=auto;html=1;exitX=1;exitY=0.5;exitDx=0;exitDy=0;entryX=0;entryY=0.5;entryDx=0;entryDy=0;entryPerimeter=0;" parent="1" source="3epC_5tGNAp-iQS2bgfX-11" target="3epC_5tGNAp-iQS2bgfX-15" edge="1">
          <mxGeometry relative="1" as="geometry" />
        </mxCell>
        <mxCell id="3epC_5tGNAp-iQS2bgfX-19" style="edgeStyle=orthogonalEdgeStyle;rounded=0;orthogonalLoop=1;jettySize=auto;html=1;exitX=1;exitY=0.5;exitDx=0;exitDy=0;entryX=0;entryY=0.5;entryDx=0;entryDy=0;entryPerimeter=0;" parent="1" source="3epC_5tGNAp-iQS2bgfX-11" target="3epC_5tGNAp-iQS2bgfX-17" edge="1">
          <mxGeometry relative="1" as="geometry" />
        </mxCell>
        <mxCell id="3epC_5tGNAp-iQS2bgfX-20" style="edgeStyle=orthogonalEdgeStyle;rounded=0;orthogonalLoop=1;jettySize=auto;html=1;exitX=1;exitY=0.5;exitDx=0;exitDy=0;entryX=0;entryY=0.5;entryDx=0;entryDy=0;entryPerimeter=0;" parent="1" source="3epC_5tGNAp-iQS2bgfX-11" target="3epC_5tGNAp-iQS2bgfX-16" edge="1">
          <mxGeometry relative="1" as="geometry" />
        </mxCell>
        <mxCell id="3epC_5tGNAp-iQS2bgfX-56" style="edgeStyle=orthogonalEdgeStyle;rounded=0;orthogonalLoop=1;jettySize=auto;html=1;exitX=1;exitY=0.5;exitDx=0;exitDy=0;entryX=0;entryY=0.5;entryDx=0;entryDy=0;entryPerimeter=0;" parent="1" source="3epC_5tGNAp-iQS2bgfX-11" target="3epC_5tGNAp-iQS2bgfX-54" edge="1">
          <mxGeometry relative="1" as="geometry" />
        </mxCell>
        <mxCell id="3epC_5tGNAp-iQS2bgfX-57" style="edgeStyle=orthogonalEdgeStyle;rounded=0;orthogonalLoop=1;jettySize=auto;html=1;exitX=1;exitY=0.5;exitDx=0;exitDy=0;entryX=0;entryY=0.5;entryDx=0;entryDy=0;entryPerimeter=0;" parent="1" source="3epC_5tGNAp-iQS2bgfX-11" target="3epC_5tGNAp-iQS2bgfX-55" edge="1">
          <mxGeometry relative="1" as="geometry" />
        </mxCell>
        <mxCell id="3epC_5tGNAp-iQS2bgfX-61" style="edgeStyle=orthogonalEdgeStyle;rounded=0;orthogonalLoop=1;jettySize=auto;html=1;exitX=1;exitY=0.5;exitDx=0;exitDy=0;entryX=0;entryY=0.5;entryDx=0;entryDy=0;entryPerimeter=0;" parent="1" source="3epC_5tGNAp-iQS2bgfX-11" target="3epC_5tGNAp-iQS2bgfX-60" edge="1">
          <mxGeometry relative="1" as="geometry" />
        </mxCell>
        <mxCell id="3epC_5tGNAp-iQS2bgfX-11" value="DAO" style="rounded=1;whiteSpace=wrap;html=1;fillColor=#d5e8d4;strokeColor=#82b366;" parent="1" vertex="1">
          <mxGeometry x="615" y="400" width="120" height="40" as="geometry" />
        </mxCell>
        <mxCell id="3epC_5tGNAp-iQS2bgfX-13" value="Admin.py" style="shape=note;whiteSpace=wrap;html=1;backgroundOutline=1;darkOpacity=0.05;size=19;fillColor=#fff2cc;strokeColor=#d6b656;" parent="1" vertex="1">
          <mxGeometry x="805" y="170" width="120" height="40" as="geometry" />
        </mxCell>
        <mxCell id="3epC_5tGNAp-iQS2bgfX-15" value="PlayersDAO.py" style="shape=note;whiteSpace=wrap;html=1;backgroundOutline=1;darkOpacity=0.05;size=19;fillColor=#fff2cc;strokeColor=#d6b656;" parent="1" vertex="1">
          <mxGeometry x="805" y="400" width="120" height="40" as="geometry" />
        </mxCell>
        <mxCell id="3epC_5tGNAp-iQS2bgfX-16" value="GuestsDAO.py" style="shape=note;whiteSpace=wrap;html=1;backgroundOutline=1;darkOpacity=0.05;size=19;fillColor=#fff2cc;strokeColor=#d6b656;" parent="1" vertex="1">
          <mxGeometry x="805" y="450" width="120" height="40" as="geometry" />
        </mxCell>
        <mxCell id="3epC_5tGNAp-iQS2bgfX-17" value="AdminDAO.py" style="shape=note;whiteSpace=wrap;html=1;backgroundOutline=1;darkOpacity=0.05;size=19;fillColor=#fff2cc;strokeColor=#d6b656;" parent="1" vertex="1">
          <mxGeometry x="805" y="350" width="120" height="40" as="geometry" />
        </mxCell>
        <mxCell id="3epC_5tGNAp-iQS2bgfX-23" style="edgeStyle=orthogonalEdgeStyle;rounded=0;orthogonalLoop=1;jettySize=auto;html=1;exitX=1;exitY=0.5;exitDx=0;exitDy=0;" parent="1" source="3epC_5tGNAp-iQS2bgfX-21" target="3epC_5tGNAp-iQS2bgfX-22" edge="1">
          <mxGeometry relative="1" as="geometry" />
        </mxCell>
        <mxCell id="3epC_5tGNAp-iQS2bgfX-28" style="edgeStyle=orthogonalEdgeStyle;rounded=0;orthogonalLoop=1;jettySize=auto;html=1;exitX=1;exitY=0.5;exitDx=0;exitDy=0;entryX=0;entryY=0.5;entryDx=0;entryDy=0;" parent="1" source="3epC_5tGNAp-iQS2bgfX-21" target="3epC_5tGNAp-iQS2bgfX-27" edge="1">
          <mxGeometry relative="1" as="geometry" />
        </mxCell>
        <mxCell id="3epC_5tGNAp-iQS2bgfX-39" style="edgeStyle=orthogonalEdgeStyle;rounded=0;orthogonalLoop=1;jettySize=auto;html=1;exitX=1;exitY=0.5;exitDx=0;exitDy=0;entryX=0;entryY=0.5;entryDx=0;entryDy=0;" parent="1" source="3epC_5tGNAp-iQS2bgfX-21" target="3epC_5tGNAp-iQS2bgfX-38" edge="1">
          <mxGeometry relative="1" as="geometry" />
        </mxCell>
        <mxCell id="3epC_5tGNAp-iQS2bgfX-21" value="Jeu" style="rounded=1;whiteSpace=wrap;html=1;fillColor=#d5e8d4;strokeColor=#82b366;" parent="1" vertex="1">
          <mxGeometry x="615" y="670" width="120" height="40" as="geometry" />
        </mxCell>
        <mxCell id="3epC_5tGNAp-iQS2bgfX-26" style="edgeStyle=orthogonalEdgeStyle;rounded=0;orthogonalLoop=1;jettySize=auto;html=1;exitX=1;exitY=0.5;exitDx=0;exitDy=0;entryX=0;entryY=0.5;entryDx=0;entryDy=0;entryPerimeter=0;" parent="1" source="3epC_5tGNAp-iQS2bgfX-22" target="3epC_5tGNAp-iQS2bgfX-25" edge="1">
          <mxGeometry relative="1" as="geometry" />
        </mxCell>
        <mxCell id="3epC_5tGNAp-iQS2bgfX-22" value="InteractionsAPI" style="rounded=1;whiteSpace=wrap;html=1;fillColor=#d5e8d4;strokeColor=#82b366;" parent="1" vertex="1">
          <mxGeometry x="805" y="670" width="120" height="40" as="geometry" />
        </mxCell>
        <mxCell id="3epC_5tGNAp-iQS2bgfX-25" value="CardsAPI.py" style="shape=note;whiteSpace=wrap;html=1;backgroundOutline=1;darkOpacity=0.05;size=19;fillColor=#fff2cc;strokeColor=#d6b656;" parent="1" vertex="1">
          <mxGeometry x="985" y="670" width="120" height="40" as="geometry" />
        </mxCell>
        <mxCell id="3epC_5tGNAp-iQS2bgfX-32" style="edgeStyle=orthogonalEdgeStyle;rounded=0;orthogonalLoop=1;jettySize=auto;html=1;exitX=1;exitY=0.5;exitDx=0;exitDy=0;entryX=0;entryY=0.5;entryDx=0;entryDy=0;entryPerimeter=0;" parent="1" source="3epC_5tGNAp-iQS2bgfX-27" target="3epC_5tGNAp-iQS2bgfX-30" edge="1">
          <mxGeometry relative="1" as="geometry" />
        </mxCell>
        <mxCell id="3epC_5tGNAp-iQS2bgfX-33" style="edgeStyle=orthogonalEdgeStyle;rounded=0;orthogonalLoop=1;jettySize=auto;html=1;exitX=1;exitY=0.5;exitDx=0;exitDy=0;entryX=0;entryY=0.5;entryDx=0;entryDy=0;entryPerimeter=0;" parent="1" source="3epC_5tGNAp-iQS2bgfX-27" target="3epC_5tGNAp-iQS2bgfX-31" edge="1">
          <mxGeometry relative="1" as="geometry" />
        </mxCell>
        <mxCell id="3epC_5tGNAp-iQS2bgfX-36" style="edgeStyle=orthogonalEdgeStyle;rounded=0;orthogonalLoop=1;jettySize=auto;html=1;exitX=1;exitY=0.5;exitDx=0;exitDy=0;entryX=0;entryY=0.5;entryDx=0;entryDy=0;entryPerimeter=0;" parent="1" source="3epC_5tGNAp-iQS2bgfX-27" target="3epC_5tGNAp-iQS2bgfX-35" edge="1">
          <mxGeometry relative="1" as="geometry" />
        </mxCell>
        <mxCell id="3epC_5tGNAp-iQS2bgfX-37" style="edgeStyle=orthogonalEdgeStyle;rounded=0;orthogonalLoop=1;jettySize=auto;html=1;exitX=1;exitY=0.5;exitDx=0;exitDy=0;entryX=0;entryY=0.675;entryDx=0;entryDy=0;entryPerimeter=0;" parent="1" source="3epC_5tGNAp-iQS2bgfX-27" target="3epC_5tGNAp-iQS2bgfX-34" edge="1">
          <mxGeometry relative="1" as="geometry" />
        </mxCell>
        <mxCell id="3epC_5tGNAp-iQS2bgfX-27" value="CardsObjects" style="rounded=1;whiteSpace=wrap;html=1;fillColor=#d5e8d4;strokeColor=#82b366;" parent="1" vertex="1">
          <mxGeometry x="805" y="730" width="120" height="40" as="geometry" />
        </mxCell>
        <mxCell id="3epC_5tGNAp-iQS2bgfX-30" value="Cards.py" style="shape=note;whiteSpace=wrap;html=1;backgroundOutline=1;darkOpacity=0.05;size=19;fillColor=#fff2cc;strokeColor=#d6b656;" parent="1" vertex="1">
          <mxGeometry x="985" y="730" width="120" height="40" as="geometry" />
        </mxCell>
        <mxCell id="3epC_5tGNAp-iQS2bgfX-31" value="Deck.py" style="shape=note;whiteSpace=wrap;html=1;backgroundOutline=1;darkOpacity=0.05;size=19;fillColor=#fff2cc;strokeColor=#d6b656;" parent="1" vertex="1">
          <mxGeometry x="985" y="790" width="120" height="40" as="geometry" />
        </mxCell>
        <mxCell id="3epC_5tGNAp-iQS2bgfX-34" value="Hand.py" style="shape=note;whiteSpace=wrap;html=1;backgroundOutline=1;darkOpacity=0.05;size=19;fillColor=#fff2cc;strokeColor=#d6b656;" parent="1" vertex="1">
          <mxGeometry x="985" y="850" width="120" height="40" as="geometry" />
        </mxCell>
        <mxCell id="3epC_5tGNAp-iQS2bgfX-35" value="Pile.py" style="shape=note;whiteSpace=wrap;html=1;backgroundOutline=1;darkOpacity=0.05;size=19;fillColor=#fff2cc;strokeColor=#d6b656;" parent="1" vertex="1">
          <mxGeometry x="985" y="910" width="120" height="40" as="geometry" />
        </mxCell>
        <mxCell id="3epC_5tGNAp-iQS2bgfX-44" style="edgeStyle=orthogonalEdgeStyle;rounded=0;orthogonalLoop=1;jettySize=auto;html=1;exitX=1;exitY=0.5;exitDx=0;exitDy=0;entryX=0;entryY=0.5;entryDx=0;entryDy=0;entryPerimeter=0;" parent="1" source="3epC_5tGNAp-iQS2bgfX-38" target="3epC_5tGNAp-iQS2bgfX-40" edge="1">
          <mxGeometry relative="1" as="geometry" />
        </mxCell>
        <mxCell id="3epC_5tGNAp-iQS2bgfX-45" style="edgeStyle=orthogonalEdgeStyle;rounded=0;orthogonalLoop=1;jettySize=auto;html=1;exitX=1;exitY=0.5;exitDx=0;exitDy=0;entryX=0;entryY=0.5;entryDx=0;entryDy=0;entryPerimeter=0;" parent="1" source="3epC_5tGNAp-iQS2bgfX-38" target="3epC_5tGNAp-iQS2bgfX-41" edge="1">
          <mxGeometry relative="1" as="geometry" />
        </mxCell>
        <mxCell id="3epC_5tGNAp-iQS2bgfX-46" style="edgeStyle=orthogonalEdgeStyle;rounded=0;orthogonalLoop=1;jettySize=auto;html=1;exitX=1;exitY=0.5;exitDx=0;exitDy=0;entryX=0;entryY=0.5;entryDx=0;entryDy=0;entryPerimeter=0;" parent="1" source="3epC_5tGNAp-iQS2bgfX-38" target="3epC_5tGNAp-iQS2bgfX-42" edge="1">
          <mxGeometry relative="1" as="geometry" />
        </mxCell>
        <mxCell id="3epC_5tGNAp-iQS2bgfX-47" style="edgeStyle=orthogonalEdgeStyle;rounded=0;orthogonalLoop=1;jettySize=auto;html=1;exitX=1;exitY=0.5;exitDx=0;exitDy=0;entryX=0;entryY=0.5;entryDx=0;entryDy=0;entryPerimeter=0;" parent="1" source="3epC_5tGNAp-iQS2bgfX-38" target="3epC_5tGNAp-iQS2bgfX-43" edge="1">
          <mxGeometry relative="1" as="geometry" />
        </mxCell>
        <mxCell id="3epC_5tGNAp-iQS2bgfX-38" value="GameMechanics" style="rounded=1;whiteSpace=wrap;html=1;fillColor=#d5e8d4;strokeColor=#82b366;" parent="1" vertex="1">
          <mxGeometry x="805" y="970" width="120" height="40" as="geometry" />
        </mxCell>
        <mxCell id="3epC_5tGNAp-iQS2bgfX-40" value="GameService.py" style="shape=note;whiteSpace=wrap;html=1;backgroundOutline=1;darkOpacity=0.05;size=19;fillColor=#fff2cc;strokeColor=#d6b656;" parent="1" vertex="1">
          <mxGeometry x="985" y="970" width="120" height="40" as="geometry" />
        </mxCell>
        <mxCell id="3epC_5tGNAp-iQS2bgfX-41" value="AbstractGame.py" style="shape=note;whiteSpace=wrap;html=1;backgroundOutline=1;darkOpacity=0.05;size=19;fillColor=#fff2cc;strokeColor=#d6b656;" parent="1" vertex="1">
          <mxGeometry x="985" y="1030" width="120" height="40" as="geometry" />
        </mxCell>
        <mxCell id="3epC_5tGNAp-iQS2bgfX-42" value="Belote.py" style="shape=note;whiteSpace=wrap;html=1;backgroundOutline=1;darkOpacity=0.05;size=19;fillColor=#fff2cc;strokeColor=#d6b656;" parent="1" vertex="1">
          <mxGeometry x="985" y="1087" width="120" height="40" as="geometry" />
        </mxCell>
        <mxCell id="3epC_5tGNAp-iQS2bgfX-43" value="Poker.py" style="shape=note;whiteSpace=wrap;html=1;backgroundOutline=1;darkOpacity=0.05;size=19;fillColor=#fff2cc;strokeColor=#d6b656;" parent="1" vertex="1">
          <mxGeometry x="985" y="1147" width="120" height="40" as="geometry" />
        </mxCell>
        <mxCell id="3epC_5tGNAp-iQS2bgfX-49" value="UsersTest.py" style="shape=note;whiteSpace=wrap;html=1;backgroundOutline=1;darkOpacity=0.05;size=19;fillColor=#fff2cc;strokeColor=#d6b656;" parent="1" vertex="1">
          <mxGeometry x="615" y="730" width="120" height="40" as="geometry" />
        </mxCell>
        <mxCell id="3epC_5tGNAp-iQS2bgfX-50" value="ObjectsTest.py" style="shape=note;whiteSpace=wrap;html=1;backgroundOutline=1;darkOpacity=0.05;size=19;fillColor=#fff2cc;strokeColor=#d6b656;" parent="1" vertex="1">
          <mxGeometry x="615" y="790" width="120" height="40" as="geometry" />
        </mxCell>
        <mxCell id="3epC_5tGNAp-iQS2bgfX-54" value="Hand/PileDAO.py" style="shape=note;whiteSpace=wrap;html=1;backgroundOutline=1;darkOpacity=0.05;size=19;fillColor=#fff2cc;strokeColor=#d6b656;" parent="1" vertex="1">
          <mxGeometry x="805" y="500" width="120" height="40" as="geometry" />
        </mxCell>
        <mxCell id="3epC_5tGNAp-iQS2bgfX-55" value="GameDAO.py" style="shape=note;whiteSpace=wrap;html=1;backgroundOutline=1;darkOpacity=0.05;size=19;fillColor=#fff2cc;strokeColor=#d6b656;" parent="1" vertex="1">
          <mxGeometry x="805" y="550" width="120" height="40" as="geometry" />
        </mxCell>
        <mxCell id="3epC_5tGNAp-iQS2bgfX-58" value="menu_backend.py" style="shape=note;whiteSpace=wrap;html=1;backgroundOutline=1;darkOpacity=0.05;size=19;fillColor=#fff2cc;strokeColor=#d6b656;" parent="1" vertex="1">
          <mxGeometry x="615" y="900" width="120" height="40" as="geometry" />
        </mxCell>
        <mxCell id="3epC_5tGNAp-iQS2bgfX-60" value="DatabaseConnexion.py" style="shape=note;whiteSpace=wrap;html=1;backgroundOutline=1;darkOpacity=0.05;size=15;fillColor=#fff2cc;strokeColor=#d6b656;" parent="1" vertex="1">
          <mxGeometry x="805" y="600" width="130" height="40" as="geometry" />
        </mxCell>
        <mxCell id="3epC_5tGNAp-iQS2bgfX-62" value="Joueurs.sql" style="shape=note;whiteSpace=wrap;html=1;backgroundOutline=1;darkOpacity=0.05;size=19;fillColor=#dae8fc;strokeColor=#6c8ebf;" parent="1" vertex="1">
          <mxGeometry x="445" y="20" width="120" height="40" as="geometry" />
        </mxCell>
        <mxCell id="3epC_5tGNAp-iQS2bgfX-63" value="Games.sql" style="shape=note;whiteSpace=wrap;html=1;backgroundOutline=1;darkOpacity=0.05;size=19;fillColor=#dae8fc;strokeColor=#6c8ebf;" parent="1" vertex="1">
          <mxGeometry x="445" y="70" width="120" height="40" as="geometry" />
        </mxCell>
        <mxCell id="3epC_5tGNAp-iQS2bgfX-64" value="CurrentGames.sql" style="shape=note;whiteSpace=wrap;html=1;backgroundOutline=1;darkOpacity=0.05;size=19;fillColor=#dae8fc;strokeColor=#6c8ebf;" parent="1" vertex="1">
          <mxGeometry x="445" y="120" width="120" height="40" as="geometry" />
        </mxCell>
      </root>
    </mxGraphModel>
  </diagram>
</mxfile>
